<svg width="542" height="379" viewBox="0 0 542 379" fill="none" xmlns="http://www.w3.org/2000/svg">
<path d="M524.8 379H17.0259C12.5104 379 8.17976 377.202 4.98678 374.002C1.7938 370.803 0 366.463 0 361.938C184.068 340.5 364.676 340.5 541.826 361.938C541.826 366.463 540.032 370.803 536.839 374.002C533.646 377.202 529.315 379 524.8 379Z" fill="#2F2E41"/>
<path d="M541.826 362.941L0 361.938L62.7957 256.052L63.0962 255.55V22.1897C63.0959 19.3572 63.6525 16.5524 64.734 13.9355C65.8155 11.3185 67.4009 8.94073 69.3995 6.93786C71.3981 4.93498 73.7709 3.34626 76.3822 2.26242C78.9936 1.17858 81.7924 0.620857 84.6189 0.621094H454.202C457.029 0.62086 459.827 1.17859 462.439 2.26243C465.05 3.34627 467.423 4.93499 469.422 6.93787C471.42 8.94074 473.005 11.3185 474.087 13.9355C475.169 16.5524 475.725 19.3572 475.725 22.1897V257.156L541.826 362.941Z" fill="#3F3D56"/>
<path d="M84.1284 15.6758C82.2697 15.6779 80.4877 16.4187 79.1734 17.7358C77.8591 19.0529 77.1198 20.8387 77.1177 22.7014V235.477C77.1198 237.339 77.8592 239.125 79.1735 240.442C80.4878 241.759 82.2697 242.5 84.1284 242.502H457.698C459.556 242.5 461.338 241.759 462.652 240.442C463.967 239.125 464.706 237.339 464.708 235.477V22.7014C464.706 20.8387 463.967 19.053 462.653 17.7359C461.338 16.4189 459.556 15.678 457.698 15.6758H84.1284Z" fill="white"/>
<path d="M86.5832 270.605C86.0088 270.606 85.4467 270.772 84.9631 271.082C84.4794 271.393 84.0944 271.835 83.8534 272.358L64.5041 314.512C64.2935 314.97 64.2013 315.475 64.2362 315.978C64.2711 316.482 64.4318 316.969 64.7036 317.394C64.9754 317.819 65.3496 318.169 65.7916 318.412C66.2337 318.654 66.7295 318.781 67.2334 318.781H474.139C474.651 318.781 475.155 318.65 475.602 318.4C476.049 318.15 476.426 317.79 476.695 317.353C476.964 316.916 477.117 316.418 477.14 315.905C477.163 315.392 477.055 314.882 476.826 314.423L455.794 272.27C455.546 271.769 455.162 271.347 454.688 271.053C454.213 270.759 453.665 270.604 453.107 270.606L86.5832 270.605Z" fill="#2F2E41"/>
<path d="M229.415 326.811C228.755 326.811 228.113 327.03 227.588 327.433C227.064 327.835 226.687 328.399 226.514 329.038L221.661 347.104C221.541 347.55 221.525 348.018 221.614 348.472C221.704 348.925 221.896 349.352 222.177 349.719C222.457 350.086 222.818 350.383 223.232 350.587C223.645 350.792 224.1 350.898 224.562 350.898H316.866C317.345 350.898 317.817 350.784 318.242 350.564C318.668 350.344 319.035 350.025 319.313 349.634C319.591 349.243 319.771 348.791 319.839 348.316C319.907 347.84 319.861 347.356 319.704 346.902L313.464 328.837C313.26 328.245 312.876 327.732 312.367 327.369C311.859 327.006 311.249 326.811 310.625 326.811L229.415 326.811Z" fill="#2F2E41"/>
<path d="M475.725 252.037V256.052H62.7954L63.1065 255.55V252.037H475.725Z" fill="#2F2E41"/>
<path d="M347.347 53.2686H249.92V55.0519H347.347C352.143 55.0519 356.743 56.9614 360.135 60.3603C363.527 63.7592 365.432 68.3692 365.432 73.176C365.432 77.9828 363.527 82.5928 360.135 85.9917C356.743 89.3907 352.143 91.3002 347.347 91.3002H199.923C195.126 91.3002 190.526 89.3907 187.134 85.9917C183.743 82.5928 181.837 77.9828 181.837 73.176C181.837 68.3692 183.743 63.7592 187.134 60.3603C190.526 56.9614 195.126 55.0519 199.923 55.0519H205.432V53.2686H199.923C194.656 53.2717 189.607 55.3704 185.884 59.1034C182.161 62.8365 180.069 67.8983 180.069 73.176C180.069 78.4538 182.161 83.5155 185.884 87.2486C189.607 90.9816 194.656 93.0804 199.923 93.0835H347.347C349.956 93.085 352.541 92.5712 354.952 91.5714C357.364 90.5717 359.555 89.1056 361.401 87.2568C363.247 85.4081 364.711 83.213 365.71 80.797C366.709 78.3809 367.223 75.7913 367.223 73.176C367.223 70.5607 366.709 67.9711 365.71 65.5551C364.711 63.139 363.247 60.9439 361.401 59.0952C359.555 57.2465 357.364 55.7803 354.952 54.7806C352.541 53.7808 349.956 53.267 347.347 53.2686Z" fill="#E6E6E6"/>
<path d="M347.347 114.793H249.92V116.576H347.347C352.141 116.579 356.739 118.49 360.128 121.889C363.517 125.287 365.421 129.896 365.421 134.7C365.421 139.505 363.517 144.114 360.128 147.512C356.739 150.911 352.141 152.822 347.347 152.825H199.923C195.126 152.825 190.526 150.915 187.134 147.516C183.743 144.117 181.837 139.507 181.837 134.7C181.837 129.894 183.743 125.284 187.134 121.885C190.526 118.486 195.126 116.576 199.923 116.576H205.432V114.793H199.923C194.656 114.796 189.607 116.895 185.884 120.628C182.161 124.361 180.069 129.423 180.069 134.7C180.069 139.978 182.161 145.04 185.884 148.773C189.607 152.506 194.656 154.605 199.923 154.608H347.347C349.956 154.609 352.541 154.096 354.952 153.096C357.364 152.096 359.555 150.63 361.401 148.781C363.247 146.933 364.711 144.737 365.71 142.321C366.709 139.905 367.223 137.316 367.223 134.7C367.223 132.085 366.709 129.496 365.71 127.079C364.711 124.663 363.247 122.468 361.401 120.62C359.555 118.771 357.364 117.305 354.952 116.305C352.541 115.305 349.956 114.791 347.347 114.793Z" fill="#E6E6E6"/>
<path d="M347.346 176.315H249.92V178.099H347.346C352.143 178.099 356.743 180.008 360.135 183.407C363.527 186.806 365.432 191.416 365.432 196.223C365.432 201.03 363.527 205.64 360.135 209.039C356.743 212.438 352.143 214.347 347.346 214.347H199.923C195.126 214.347 190.526 212.438 187.134 209.039C183.743 205.64 181.837 201.03 181.837 196.223C181.837 191.416 183.743 186.806 187.134 183.407C190.526 180.008 195.126 178.099 199.923 178.099H205.432V176.315H199.923C194.654 176.315 189.601 178.413 185.876 182.146C182.151 185.88 180.058 190.943 180.058 196.223C180.058 201.503 182.151 206.566 185.876 210.3C189.601 214.033 194.654 216.13 199.923 216.13H347.346C349.955 216.13 352.538 215.615 354.949 214.615C357.359 213.615 359.549 212.148 361.393 210.3C363.238 208.451 364.701 206.256 365.7 203.841C366.698 201.426 367.212 198.837 367.212 196.223C367.212 193.609 366.698 191.02 365.7 188.605C364.701 186.189 363.238 183.995 361.393 182.146C359.549 180.298 357.359 178.831 354.949 177.831C352.538 176.83 349.955 176.315 347.346 176.315Z" fill="#E6E6E6"/>
<path d="M216.429 48.5574C215.04 48.58 213.717 49.1485 212.743 50.1403C211.769 51.1321 211.223 52.4677 211.223 53.8591C211.223 55.2505 211.769 56.5862 212.743 57.578C213.717 58.5698 215.04 59.1383 216.429 59.1609H239.638C240.333 59.1723 241.023 59.0465 241.67 58.7906C242.316 58.5347 242.906 58.1538 243.405 57.6696C243.904 57.1853 244.303 56.6073 244.58 55.9685C244.856 55.3296 245.004 54.6424 245.016 53.9462C245.027 53.2499 244.902 52.5583 244.646 51.9107C244.391 51.263 244.011 50.6722 243.528 50.1718C243.044 49.6714 242.468 49.2713 241.83 48.9943C241.193 48.7173 240.507 48.5688 239.812 48.5574C239.754 48.5564 239.696 48.5564 239.638 48.5574H216.429Z" fill="#3F3D56"/>
<path d="M216.429 110.972C215.04 110.995 213.717 111.564 212.743 112.555C211.769 113.547 211.223 114.883 211.223 116.274C211.223 117.666 211.769 119.001 212.743 119.993C213.717 120.985 215.04 121.553 216.429 121.576H239.638C241.042 121.599 242.396 121.063 243.405 120.085C244.413 119.107 244.993 117.767 245.016 116.361C245.039 114.955 244.504 113.597 243.528 112.587C242.552 111.576 241.215 110.996 239.812 110.972C239.754 110.971 239.696 110.971 239.638 110.972H216.429Z" fill="#3F3D56"/>
<path d="M216.429 171.604C215.041 171.627 213.717 172.196 212.743 173.187C211.77 174.179 211.224 175.515 211.224 176.906C211.224 178.297 211.77 179.633 212.743 180.625C213.717 181.616 215.041 182.185 216.429 182.208H239.639C241.042 182.231 242.396 181.694 243.405 180.716C244.413 179.739 244.993 178.399 245.016 176.993C245.039 175.587 244.504 174.229 243.528 173.219C242.552 172.208 241.215 171.627 239.812 171.604C239.754 171.603 239.696 171.603 239.639 171.604H216.429Z" fill="#3F3D56"/>
<path d="M207.223 67.8748C205.835 67.8973 204.511 68.4659 203.537 69.4577C202.563 70.4495 202.018 71.7851 202.018 73.1765C202.018 74.5679 202.563 75.9035 203.537 76.8954C204.511 77.8872 205.835 78.4557 207.223 78.4783H339.872C340.567 78.4897 341.257 78.3639 341.903 78.108C342.549 77.8521 343.139 77.4712 343.638 76.987C344.138 76.5028 344.537 75.9247 344.813 75.2858C345.09 74.647 345.238 73.9598 345.249 73.2636C345.261 72.5673 345.135 71.8757 344.88 71.228C344.625 70.5804 344.244 69.9896 343.761 69.4892C343.278 68.9888 342.701 68.5886 342.064 68.3116C341.426 68.0346 340.741 67.8862 340.046 67.8748C339.988 67.8738 339.93 67.8738 339.872 67.8748H207.223Z" fill="#70D1ED"/>
<path d="M207.223 129.398C205.835 129.421 204.511 129.989 203.537 130.981C202.564 131.973 202.018 133.309 202.018 134.7C202.018 136.091 202.564 137.427 203.537 138.419C204.511 139.41 205.835 139.979 207.223 140.002H339.872C340.567 140.013 341.257 139.887 341.903 139.631C342.55 139.376 343.139 138.995 343.639 138.51C344.138 138.026 344.537 137.448 344.814 136.809C345.09 136.17 345.238 135.483 345.25 134.787C345.261 134.091 345.135 133.399 344.88 132.751C344.625 132.104 344.245 131.513 343.761 131.013C343.278 130.512 342.701 130.112 342.064 129.835C341.426 129.558 340.741 129.41 340.046 129.398C339.988 129.397 339.93 129.397 339.872 129.398H207.223Z" fill="#70D1ED"/>
<path d="M207.223 190.923C205.835 190.945 204.511 191.514 203.537 192.506C202.564 193.497 202.018 194.833 202.018 196.224C202.018 197.616 202.564 198.951 203.537 199.943C204.511 200.935 205.835 201.503 207.223 201.526H339.872C340.567 201.538 341.257 201.412 341.903 201.156C342.55 200.9 343.139 200.519 343.639 200.035C344.138 199.551 344.537 198.973 344.814 198.334C345.09 197.695 345.238 197.008 345.25 196.311C345.261 195.615 345.135 194.923 344.88 194.276C344.625 193.628 344.245 193.037 343.761 192.537C343.278 192.037 342.701 191.636 342.064 191.359C341.426 191.083 340.741 190.934 340.046 190.923C339.988 190.922 339.93 190.922 339.872 190.923H207.223Z" fill="#E6E6E6"/>
<path d="M157.956 83.3763C163.807 83.3763 168.55 78.6228 168.55 72.759C168.55 66.8952 163.807 62.1416 157.956 62.1416C152.104 62.1416 147.361 66.8952 147.361 72.759C147.361 78.6228 152.104 83.3763 157.956 83.3763Z" fill="#FFB800"/>
<path d="M156.973 77.121L153.886 73.1441L155.681 71.745L157.143 73.6279L162.08 68.4053L163.731 69.973L156.973 77.121Z" fill="white"/>
<path d="M157.956 144.9C163.807 144.9 168.55 140.146 168.55 134.282C168.55 128.419 163.807 123.665 157.956 123.665C152.104 123.665 147.361 128.419 147.361 134.282C147.361 140.146 152.104 144.9 157.956 144.9Z" fill="#FFB800"/>
<path d="M156.973 138.644L153.886 134.668L155.681 133.268L157.143 135.151L162.08 129.929L163.731 131.496L156.973 138.644Z" fill="white"/>
<path d="M157.956 206.423C163.807 206.423 168.55 201.67 168.55 195.806C168.55 189.942 163.807 185.188 157.956 185.188C152.104 185.188 147.361 189.942 147.361 195.806C147.361 201.67 152.104 206.423 157.956 206.423Z" fill="#E6E6E6"/>
<path d="M390.18 83.3763C396.032 83.3763 400.775 78.6228 400.775 72.759C400.775 66.8952 396.032 62.1416 390.18 62.1416C384.329 62.1416 379.586 66.8952 379.586 72.759C379.586 78.6228 384.329 83.3763 390.18 83.3763Z" fill="#E6E6E6"/>
<path d="M390.18 144.9C396.032 144.9 400.775 140.146 400.775 134.282C400.775 128.419 396.032 123.665 390.18 123.665C384.329 123.665 379.586 128.419 379.586 134.282C379.586 140.146 384.329 144.9 390.18 144.9Z" fill="#E6E6E6"/>
<path d="M390.18 206.423C396.032 206.423 400.775 201.67 400.775 195.806C400.775 189.942 396.032 185.188 390.18 185.188C384.329 185.188 379.586 189.942 379.586 195.806C379.586 201.67 384.329 206.423 390.18 206.423Z" fill="#E6E6E6"/>
<path d="M156.973 200.168L153.886 196.191L155.681 194.792L157.143 196.675L162.08 191.452L163.731 193.019L156.973 200.168Z" fill="white"/>
<path d="M387.503 69.3477L386.622 70.2314L392.546 76.1684L393.428 75.2847L387.503 69.3477Z" fill="white"/>
<path d="M392.858 69.3482L386.934 75.2852L387.815 76.1689L393.74 70.2319L392.858 69.3482Z" fill="white"/>
<path d="M387.503 130.871L386.622 131.755L392.546 137.692L393.428 136.808L387.503 130.871Z" fill="white"/>
<path d="M392.858 130.872L386.934 136.809L387.815 137.692L393.74 131.755L392.858 130.872Z" fill="white"/>
<path d="M387.503 192.396L386.622 193.279L392.546 199.216L393.428 198.333L387.503 192.396Z" fill="white"/>
<path d="M392.858 192.396L386.934 198.333L387.815 199.217L393.74 193.28L392.858 192.396Z" fill="white"/>
<path d="M159.994 191.553C160.916 190.941 161.696 190.136 162.278 189.193C162.86 188.25 163.231 187.192 163.366 186.091C163.501 184.991 163.396 183.874 163.058 182.818C162.72 181.762 162.158 180.793 161.41 179.976L151.239 168.865L141.47 173.822L148.947 188.622C149.435 189.587 150.12 190.437 150.959 191.118C151.798 191.798 152.771 192.293 153.814 192.57C154.858 192.847 155.948 192.899 157.013 192.724C158.078 192.548 159.093 192.149 159.994 191.553Z" fill="#FFB8B8"/>
<path d="M28.5165 224.548C29.6155 224.42 30.6737 224.055 31.6182 223.477C32.5626 222.9 33.3708 222.124 33.987 221.203C34.6032 220.282 35.0127 219.238 35.1874 218.143C35.3621 217.048 35.2976 215.929 34.9986 214.861L30.9325 200.345H19.9824V216.933C19.9824 218.015 20.2108 219.084 20.6524 220.071C21.0941 221.058 21.7392 221.94 22.5452 222.659C23.3512 223.378 24.2999 223.918 25.3291 224.244C26.3582 224.57 27.4445 224.673 28.5165 224.548Z" fill="#FFB8B8"/>
<path d="M91.7666 334.058L112.451 330.807L103.934 321.865H91.7666V334.058Z" fill="#FFB8B8"/>
<path d="M25.2549 334.871L46.7495 340.561C42.7906 332.331 40.3527 325.049 41.8828 320.24L31.7438 319.021L25.2549 334.871Z" fill="#FFB8B8"/>
<path d="M29.7158 321.052L42.2886 323.491L76.7611 212.131L91.3611 323.084H104.745L103.528 166.205H51.6162L29.7158 321.052Z" fill="#575A88"/>
<path d="M95.7263 338.993L116.186 332.249C116.729 332.07 117.227 331.776 117.646 331.387C118.065 330.998 118.396 330.523 118.616 329.994C118.835 329.466 118.939 328.896 118.919 328.323C118.899 327.751 118.757 327.19 118.501 326.678C118.15 325.974 117.6 325.391 116.919 325C116.238 324.61 115.457 324.43 114.674 324.483L110.033 324.797L108.214 323.771C108.023 323.663 107.802 323.617 107.584 323.641C107.365 323.664 107.159 323.755 106.994 323.901C106.83 324.047 106.715 324.241 106.665 324.455C106.615 324.67 106.633 324.895 106.717 325.099L108.394 329.181L91.361 327.961L90.5205 334.699C90.4371 335.368 90.5239 336.047 90.7727 336.674C91.0216 337.3 91.4245 337.854 91.944 338.282C92.4635 338.711 93.0827 339 93.744 339.125C94.4053 339.249 95.0872 339.204 95.7263 338.993Z" fill="#575A88"/>
<path d="M26.5763 342.093L48.8164 343.539C49.4065 343.577 49.9978 343.487 50.5503 343.276C51.1027 343.065 51.6033 342.737 52.018 342.315C52.4326 341.892 52.7516 341.385 52.9533 340.828C53.155 340.271 53.2346 339.677 53.1867 339.087C53.1209 338.276 52.8174 337.502 52.3142 336.864C51.811 336.225 51.1307 335.75 50.3588 335.498L45.7824 334.003L44.4318 332.315C44.2895 332.137 44.0955 332.008 43.8766 331.945C43.6577 331.883 43.4249 331.891 43.2106 331.967C42.9962 332.043 42.811 332.185 42.6805 332.372C42.5501 332.559 42.481 332.781 42.4829 333.009L42.5196 337.577L26.6378 329.813L23.234 335.956C22.896 336.566 22.7174 337.252 22.7149 337.95C22.7123 338.647 22.8859 339.334 23.2194 339.947C23.5529 340.559 24.0356 341.077 24.6225 341.453C25.2094 341.828 25.8815 342.048 26.5763 342.093Z" fill="#575A88"/>
<path d="M73.9217 78.4181C82.2092 78.4181 88.9274 71.6855 88.9274 63.3804C88.9274 55.0754 82.2092 48.3428 73.9217 48.3428C65.6343 48.3428 58.916 55.0754 58.916 63.3804C58.916 71.6855 65.6343 78.4181 73.9217 78.4181Z" fill="#FFB8B8"/>
<path d="M64.1885 91.0173H84.872V71.1025H64.1885C65.8977 77.2529 65.6768 83.9542 64.1885 91.0173Z" fill="#FFB8B8"/>
<path d="M48.7773 168.238L105.556 169.051L111.234 108.938C111.234 105.017 110.008 101.193 107.728 98.0051C105.449 94.817 102.231 92.4243 98.525 91.1631L89.7389 88.1728L84.8721 82.4829C78.7277 81.1522 72.0423 81.4748 64.9997 82.8893L59.7274 90.6114L54.0499 92.4272C50.1917 93.6612 46.8383 96.1187 44.4953 99.4292C42.1524 102.74 40.9469 106.724 41.0606 110.781C45.2853 132.649 48.5704 152.972 48.7773 168.238Z" fill="#70D1ED"/>
<path d="M17.9546 200.345L32.1492 201.971L48.3716 136.537L49.9938 94.2686L49.5149 94.5008C45.7601 96.3215 42.4799 98.9934 39.9343 102.305C37.3886 105.616 35.6474 109.476 34.8486 113.579L17.9546 200.345Z" fill="#70D1ED"/>
<path d="M142.056 175.96L153.006 170.676L120.888 110.617C116.224 101.895 108.641 95.0991 99.4722 91.4238L105.556 129.628L142.056 175.96Z" fill="#70D1ED"/>
<path d="M64.6476 76.9146C64.6476 76.9146 79.3621 76.0401 79.6806 73.4895C79.9991 70.939 82.1475 65.1208 84.6926 65.44C87.2378 65.7592 94.2913 57.2565 92.7807 53.8289C91.27 50.4013 84.1401 37.7819 69.584 43.5982C55.0279 49.4145 56.6959 64.001 58.2066 67.4286C59.7173 70.8562 64.6476 76.9146 64.6476 76.9146Z" fill="#2F2E41"/>
<path d="M424.757 261.234C424.596 261.235 424.439 261.288 424.312 261.386C424.184 261.484 424.092 261.621 424.05 261.777L422.868 266.176C422.839 266.285 422.835 266.399 422.857 266.509C422.879 266.62 422.926 266.724 422.994 266.813C423.062 266.902 423.15 266.975 423.251 267.024C423.352 267.074 423.462 267.1 423.575 267.1H446.052C446.169 267.1 446.284 267.072 446.387 267.019C446.491 266.965 446.58 266.887 446.648 266.792C446.716 266.697 446.76 266.587 446.776 266.471C446.793 266.355 446.781 266.237 446.743 266.127L445.224 261.728C445.174 261.584 445.081 261.459 444.957 261.37C444.833 261.282 444.684 261.234 444.532 261.234H424.757Z" fill="#70D1ED"/>
<path d="M391.937 261.234C391.776 261.235 391.62 261.288 391.492 261.386C391.364 261.484 391.273 261.621 391.231 261.777L390.049 266.176C390.019 266.285 390.016 266.399 390.037 266.509C390.059 266.62 390.106 266.724 390.174 266.813C390.243 266.902 390.331 266.975 390.431 267.024C390.532 267.074 390.643 267.1 390.755 267.1H413.232C413.349 267.1 413.464 267.072 413.568 267.019C413.671 266.965 413.761 266.887 413.828 266.792C413.896 266.697 413.94 266.587 413.957 266.471C413.973 266.355 413.962 266.237 413.924 266.127L412.404 261.728C412.354 261.584 412.261 261.459 412.137 261.37C412.013 261.282 411.865 261.234 411.713 261.234H391.937Z" fill="#70D1ED"/>
</svg>
